/* XPM */
static char *_dcc1c3862c54a618c4b16d6d40baff8K3UohUKojuNYquVh[] = {
/* columns rows colors chars-per-pixel */
"32 32 12 1 ",
"  c None",
". c #3E3F3E",
"X c #642F2F",
"o c #5D4E3D",
"O c #7C4949",
"+ c #645746",
"@ c #646464",
"# c #B13B3B",
"$ c #BC9276",
"% c #9EA2A8",
"& c #DEA985",
"* c #CBD0D7",
/* pixels */
"                   XO$#         ",
"                   XO##         ",
"                    ..          ",
"                   @@.*         ",
"                  %++++*        ",
"                 %++++*+*       ",
"                 *++++++*       ",
"                 *++++*+*       ",
"                 %++++*+*       ",
"                 %XXXX*+*       ",
"                 %XXXX*X*       ",
"                 %OOOOOO*       ",
"                 %OOOOOO*       ",
"                 %OOOOOO*       ",
"                 .OXOOOO*       ",
"               ++.OXOXOO%       ",
"      ++++++  +%%%%XXXOX%+      ",
"     +%%%%%+++%@@@#&XXOX.+      ",
"    +%@@@@@*+.@@####&XXX%+++    ",
"    +.%%%%*@+..OO###.&XX.oo+++  ",
"    +.@@@@%@o..XOO#@.%*.ooooo++ ",
"    +X@@@@%Oo.XXOO.%@..*ooooo++ ",
"    +XOO##&OooXXX.%.@@..%ooo++  ",
"    +X%O%%&OoooXX.%@%@@.%o+++   ",
"   ++XOO%#&OooooX.%@%@%.%oo++   ",
"   ++.OO##&@ooooo.%@@%@@%ooo++  ",
"  +++..@@@%@oooooo.*@@@%oooo++  ",
"  ++o@..@@%%oooooooo*%%ooo+++   ",
"  ++oo@%%**oooo+oooooooo+++     ",
"   ++oooooooo++++++++++++       ",
"    ++++++++++                  ",
"                                "
};
