/* XPM */
static char *e06616bafa1b4167e03b3aefe05e6c25C3zhVNmEHzByBlOq[] = {
/* columns rows colors chars-per-pixel */
"32 32 13 1 ",
"  c None",
". c #3E3F3E",
"X c #5B2D2D",
"o c #622F2F",
"O c #632F2F",
"+ c #642F2F",
"@ c #5D4E3D",
"# c #7C4949",
"$ c #6F6455",
"% c #646464",
"& c #B13B3B",
"* c #9EA2A8",
"= c #CBD0D7",
/* pixels */
"          **=====               ",
"        ***========             ",
"       ***==========            ",
"      **============*           ",
"      *******=======*           ",
"    ..*========*.==**           ",
"     ....***....===$===         ",
"     *&+*==**&+=====%*=         ",
"     *++*==**++=======          ",
" ==  ****===*===%%**            ",
"= *=  ***%%***==%**.            ",
"   ==  **%%****=**..+           ",
"=****  *....***=*.+####         ",
"=%*==# *.....**=..#########     ",
"=%%**+#********..+###+++++O#    ",
"* * ++#***%****%%+###++   O#    ",
"* *  ++#+****+.%%.+#####  O#    ",
"*  *  +++++++++*%.+++++   O#    ",
"**  *  ++++++ +*%%.#####  O#    ",
" **  *         .*%.++++   OX+   ",
"  **  *        +*%.+###   **=   ",
"   **  *       ........  ***=   ",
"     *  *      .......%  ***=   ",
"              ........%  ****%* ",
"              ..%    ..   ***** ",
"             ...%    ...   **   ",
"             ..%      ..%       ",
"              .        ..%      ",
"              .         .       ",
"             ...       ...      ",
"      @@@@......@@@@@.....@@@@  ",
"        @@@@@@@@@@@@@@@@@@@@    "
};
