/* XPM */
static char *_db6ad43b3c843b9ae8d354cf023d57dQWhb7nPW6ZA5JpJy[] = {
/* columns rows colors chars-per-pixel */
"32 32 12 1 ",
"  c None",
". c #3E3F3E",
"X c #5B2D2D",
"o c #622F2F",
"O c #632F2F",
"+ c #642F2F",
"@ c #5D4E3D",
"# c #7C4949",
"$ c #6F6455",
"% c #646464",
"& c #9EA2A8",
"* c #CBD0D7",
/* pixels */
"                                ",
"         &&*****                ",
"       &&&********              ",
"      &&&**********             ",
"     &&************&            ",
"     &&&&&&&*******&            ",
"   ..&********&.**&&            ",
"    ..&&&&&&&&.***$***          ",
"    &...**&...*****%&*          ",
"    &%%%**&%%%*******           ",
"    &&&&***&***%%&&             ",
"     &&&%%&&***%&&..            ",
"      &&%%&&&**&&...+           ",
"      &....&&**&..+####         ",
"       &....&&&...#########     ",
"       &....&&&..+###+++++O#    ",
"       &&&%&&&&%%+###++   O#    ",
"         &&&&+.%%.+#####  O#    ",
"         ++++ .&%.+++++   +#    ",
"        #+++  +&%%.#####  O#    ",
"       #+++    .&%.++++   OX+   ",
"      #+++     +&%.+###   &&*   ",
"      +++      ........  &&&*   ",
"      &+       .......%  &&&*   ",
"      &&   &  ........%  &&&&%& ",
"      &&&&&& ...%%  ....  &&&&& ",
"      &&&&   ..%      ..%  &&   ",
"        &&    .        ..%      ",
"              .         .       ",
"             ...       ...      ",
"      @@@@......@@@@@.....@@@@  ",
"        @@@@@@@@@@@@@@@@@@@@    "
};
