/* XPM */
static char *_aa5af60d891488aa6449a7c65614ad2axpne26eEDyQwpbC[] = {
/* columns rows colors chars-per-pixel */
"32 32 10 1 ",
"  c #3E3F3E",
". c #524539",
"X c #615545",
"o c #645746",
"O c #566556",
"+ c #6F6455",
"@ c #646464",
"# c #688F68",
"$ c #9EA2A8",
"% c #CBD0D7",
/* pixels */
"ooooXXXXXXXXXXXXXXXXXXXXXXXXXo  ",
"o%%%%%%%%%$$$$%%%%%$%%%$%%%%%   ",
"%##O##########################% ",
"%#O###########################%o",
"%##%%%%#%###%##%#%%%#%##O#####% ",
"%##%#####%#$###%###%##########% ",
"%##%%%####$####%###%##%%%#%%##% ",
"%##%#####%#%#######%###%%%%%##% ",
"%##%#%%#%###%##%###%####%%%%##% ",
"%######################%%%%%##% ",
"%O####################%%%#%%##% ",
"%OOOO#####O##O#######$%%###%##% ",
"%#OOO#O#######O#####%%%#######% ",
"%OO###########################% ",
"o%%%%$%%%%%%%%%%$$$$%%%%%%%%%%  ",
"oXXXXXo   XXXXXX                ",
"oXXXXXX@@@XXXX        @@@       ",
"oooooXX@$@XX          @$@       ",
"oo  @XX@$@            @$@       ",
"oo   XX@$@            @$@       ",
"XXX++o @$@    O       @$@       ",
"o      @$   O O O     @$@    ...",
"o           OXO O            @@@",
"oo @            ..              ",
"oXX..           ..     @    .   ",
"X  X..          ..X      @.X    ",
"   X XX..XXX..X....       X     ",
"ooXXXXXX  XXX  @ooo.XXX @.XXX.X.",
"oXo oooooXXX     Xoo.  @@XXXX.Xo",
"oXXXXXoOoOXX.   .XX.      XXXXX ",
"ooooooooooXXXXXXXXXX   ooXXX Xoo",
"ooooooooooooooooooo++++XXXoooooo"
};
