/* XPM */
static char *_0c095e23fc241efb325d662b0853d8b83cykowavnlCG6NG[] = {
/* columns rows colors chars-per-pixel */
"32 32 4 1 ",
"  c #615545",
". c #645746",
"X c #566556",
"o c #6F6455",
/* pixels */
"...X .......... ooooo...........",
"...X X ........  oooo.....oo....",
"..     .........     ....ooo....",
"..........   .....  ......o  ...",
"ooo........ oo........oo.    ...",
"oooooo..... oo........  ........",
"       ...............  ........",
".....................  .oooo....",
".................... .ooooo  ...",
"..............oo.....  ooo   ...",
"..............oo .....   .......",
".......oo.....   ...............",
"......ooo.......................",
"... ..ooo............oo ........",
"......   ...X...X....o  .... oo.",
"............X X.X ...   .... oo.",
"...........   X X . ........   .",
"............     ...............",
"..................ooo...........",
".ooo..............ooo...........",
"  oo ....oo ......o.........X.X ",
".  o ..oooo  ...............X. .",
"..   ..ooooo  .......  o...  ...",
"........      ......  oo........",
"................................",
"................................",
"..........................ooo...",
"..oo..........o.o........oooo...",
"  ooo...X X . o.........oooooo..",
"     .X.X       ........ oo   ..",
"......... ..............     ...",
"..................oooo.........."
};
