/* XPM */
static char *c53a89ecc830445bc31242e3ad5622b0m2efChGBZmPNDYtX[] = {
/* columns rows colors chars-per-pixel */
"31 32 8 1 ",
"  c None",
". c #3E3F3E",
"X c #5D4E3D",
"o c #566556",
"O c #646464",
"+ c #688F68",
"@ c #BC9276",
"# c #DEA985",
/* pixels */
"        oo.........++o+        ",
"       oo..........++o+++      ",
"       o..##........+++++++    ",
"       ..####...#....++o+oo    ",
"       ......#........+o+oo    ",
"       ....#####......ooooo    ",
"       .@O@##@@#@O@##.ooooo    ",
"      ..@@@##@@#@@@##.oooo.    ",
"      ..###...@#@@@##.oooo.    ",
"      ..##.......###..oooo.    ",
"     ......###........o.o.     ",
"      .....@@@........o......  ",
"     ................o..++...  ",
"      .................+oo...  ",
"     ++...............+oooo..  ",
"    +++...............+oooo..  ",
"    +++.o........o+..++oooo..  ",
"    +++.+ooo.oo++oo..++oooo..  ",
"    +o..++++.o++++o..++oooo..  ",
"    +o.+++oo.++++oo..++++oo..  ",
"    ++oo++++.o+++++o.++oooo..  ",
"    +.o+++oo.+++ooooo++++oo    ",
"    ..ooo+++.o++++ooo.....     ",
"    ...+++oo.+ooooooo.....     ",
"     ...O.................     ",
"        O.........O...         ",
"        O...      O...         ",
"        O...      O...         ",
"        O...      O...         ",
"   XXXX.....XXXXX.....XXXXX    ",
"     XXXXXXXXXXXXXXXXXXXX      ",
"                               "
};
