/* XPM */
static char *_bd3f6c7d67a462bf4235b455a8adf97RhVfESLBhNoRKzwi[] = {
/* columns rows colors chars-per-pixel */
"31 32 8 1 ",
"  c None",
". c #3E3F3E",
"X c #5D4E3D",
"o c #566556",
"O c #646464",
"+ c #688F68",
"@ c #BC9276",
"# c #DEA985",
/* pixels */
"        +o++.........oo        ",
"      +++o++..........oo       ",
"    +++++++........##..o       ",
"    oo+o++....#...####..       ",
"    oo+o+........#......       ",
"    ooooo......#####....       ",
"    ooooo.##@O@#@@##@O@.       ",
"    .oooo.##@@@#@@##@@@..      ",
"    .oooo.##@@@#@...###..      ",
"    .oooo..###.......##..      ",
"     .o.o........###......     ",
"  ......o........@@@.....      ",
"  ...++..o................     ",
"  ...oo+.................      ",
"  ..oooo+...............++     ",
"  ..oooo+...............+++    ",
"  ..oooo++..+o........o.+++    ",
"  ..oooo++..oo++oo.ooo+.+++    ",
"  ..oooo++..o++++o.++++..o+    ",
"  ..oo++++..oo++++.oo+++.o+    ",
"  ..oooo++.o+++++o.++++oo++    ",
"    oo++++ooooo+++.oo+++o.+    ",
"     .....ooo++++o.+++ooo..    ",
"     .....ooooooo+.oo+++...    ",
"     .................O...     ",
"         ...O.........O        ",
"         ...O      ...O        ",
"         ...O      ...O        ",
"         ...O      ...O        ",
"    XXXXX.....XXXXX.....XXXX   ",
"      XXXXXXXXXXXXXXXXXXXX     ",
"                               "
};
