/* XPM */
static char *f3115f153d894cc8beb954ba4605d9671fU827GPcsorw4KF[] = {
/* columns rows colors chars-per-pixel */
"60 60 151 2 ",
"   c None",
".  c #3A2213",
"X  c #3F2718",
"o  c #3F2819",
"O  c #432B1C",
"+  c #472F21",
"@  c #473122",
"#  c #4A3324",
"$  c #4E3827",
"%  c #4F3729",
"&  c #4F3829",
"*  c #523B2C",
"=  c #553E31",
"-  c #56402F",
";  c #564133",
":  c #5A4335",
">  c #5E4937",
",  c #5B4638",
"<  c #5F4A3B",
"1  c #624B3E",
"2  c #654E41",
"3  c #675043",
"4  c #6A5445",
"5  c #6C5945",
"6  c #6B5649",
"7  c #6F5B4D",
"8  c #715C4C",
"9  c #745D51",
"0  c #75624E",
"q  c #746253",
"w  c #796256",
"e  c #7C6A55",
"r  c #776658",
"t  c #7B6559",
"y  c #7F6B5A",
"u  c #826B5F",
"i  c #83715C",
"p  c #846E62",
"a  c #857164",
"s  c #897266",
"d  c #8C7B65",
"f  c #867769",
"g  c #8D766B",
"h  c #8C7A6B",
"j  c #917A6F",
"k  c #937D71",
"l  c #93826C",
"z  c #948275",
"x  c #998277",
"c  c #9A8875",
"v  c #958679",
"b  c #9A8479",
"n  c #97897B",
"m  c #9E887C",
"M  c #A08C7E",
"N  c #A4947D",
"B  c #9C8E81",
"V  c #9F9285",
"C  c #A28E81",
"Z  c #A59285",
"A  c #A99685",
"S  c #A79880",
"D  c #AA9A84",
"F  c #A79489",
"G  c #A8958A",
"H  c #A79A8D",
"J  c #AC9B8B",
"K  c #AE9D92",
"L  c #B2A38D",
"P  c #B6A88F",
"I  c #AEA396",
"U  c #B4A493",
"Y  c #B7A991",
"T  c #BBAC95",
"R  c #B5A69A",
"E  c #B4A99C",
"W  c #BBAC9C",
"Q  c #BEB097",
"!  c #BFB199",
"~  c #B7ADA0",
"^  c #BBAFA2",
"/  c #BEB2A5",
"(  c #BFB6A9",
")  c #C1B49A",
"_  c #C4B89F",
"`  c #C1B4A6",
"'  c #C6BAA3",
"]  c #C9BDA6",
"[  c #C1B6A9",
"{  c #C4BAAD",
"}  c #CABEAA",
"|  c #C7BEB1",
" . c #CABEB2",
".. c #CCC2AD",
"X. c #CCC2B4",
"o. c #CFC5B9",
"O. c #CEC6BA",
"+. c #D0C6B2",
"@. c #D0C6B3",
"#. c #D1C7B4",
"$. c #D2C9B7",
"%. c #D3CAB7",
"&. c #D3CAB6",
"*. c #D0C6BA",
"=. c #D0C8BB",
"-. c #D3CABA",
";. c #D4CBB9",
":. c #D5CDBB",
">. c #D1CABD",
",. c #D6CEBC",
"<. c #D7CFBF",
"1. c #D4CBBB",
"2. c #D8D0BF",
"3. c #D4CDC1",
"4. c #D6CFC3",
"5. c #D7CEC2",
"6. c #D8CFC4",
"7. c #D8D0C0",
"8. c #D9D2C2",
"9. c #DAD2C2",
"0. c #D8D1C5",
"q. c #DBD4C6",
"w. c #DCD4C5",
"e. c #DCD5C7",
"r. c #DDD6C7",
"t. c #DAD2C4",
"y. c #DBD5C9",
"u. c #DCD5C9",
"i. c #DDD6C8",
"p. c #DDD6CA",
"a. c #DCD5C9",
"s. c #DED8CA",
"d. c #DFD8CB",
"f. c #DED8CC",
"g. c #DFD9CD",
"h. c #E0D9CD",
"j. c #E0DACE",
"k. c #E1DACE",
"l. c #E1DBCE",
"z. c #E1DBCF",
"x. c #E2DBCF",
"c. c #E2DCCF",
"v. c #E1DBCF",
"b. c #E2DCD0",
"n. c #E2DCD1",
"m. c #E2DDD1",
"M. c #E3DDD1",
"N. c #E4DED2",
"B. c #E4DFD3",
"V. c #E5DFD3",
"C. c #E2DCD0",
/* pixels */
"                                                                                                                        ",
"                                                                                                                        ",
"                      . . . . . . . . . . . . . . . . . . . . . . . . . . . . . . . . . . . . . .                       ",
"                  . . . . O O @ O . . . . . . . . . . O + @ O . . . . . . . . . . . . . . . X . . . .                   ",
"              . . . + 7 n E [ { ~ n q , % = < 7 a v H E ( { ~ Z f r 6 1 = * # # @ O @ = 7 z I V r & . . .               ",
"            . . X q ^ y.B.B.B.B.B.B.g.3.O.>.0.g.v.B.B.B.B.B.B.B.C.C.f.0.3.O.X.{ [ ( { O.g.N.B.B.g.| f @ . .             ",
"          . . @ B u.B.C.C.C.C.C.B.C.C.B.B.B.C.C.B.g.C.C.C.C.B.g.C.C.C.C.N.N.B.B.B.B.B.B.B.l.B.l.B.B.l.R ; . .           ",
"        . . # H C.B.C.C.C.C.C.l.l.l.C.C.C.C.l.C.g.B.C.C.C.C.l.B.C.C.C.C.C.C.C.C.B.l.l.l.g.B.g.B.B.g.B.B.( : . .         ",
"        . X B v.C.C.C.C.c.c.B.B.C.C.C.C.C.C.C.C.B.C.B.C.C.B.l.C.B.k.B.B.C.C.B.C.k.l.k.k.x.h.x.x.l.g.B.l.B.~ # .         ",
"      . . q y.B.C.C.C.C.l.s.e.q.u.e.e.e.e.e.e.t.q.q.q.q.q.y.e.y.e.e.t.e.u.t.t.t.t.h.t.h.e.h.h.k.C.B.C.C.l.C.z . .       ",
"      . O ~ B.B.B.c.q.$..._ _ ) _ _ ) _ ` _ ) _ _ _ _ _ _ _ _ _ _ ) _ _ _ _ _ _ _ _ ) _ _ ` ) ' X.9.g.C.C.B.>.; .       ",
"      . 6 y.c.c.q...' ! ) ) ) ) ) ) ) ) ) ) ) ) ! ) ! ) Q ) ) ) ) ) ) ) ) ) ) ) ) ) ) ) ) ) ) ) ) _ } 9.C.C.B.h . .     ",
"    . . z B.c.<.' ) ) ) Q ) ) ) ) ) ) ) ) ) ) ) ) ) ) ) ) ) Q L J P ) ) ) ) ) ) ) ) ) ) ) ) ) ) ) ) ) ) $.l.B.R O .     ",
"    . X I B.;._ ) ) ) ) ) ) ) ) ) ) ) ) ) ) ) ) ) ) ) ) ) ! D b b b L ) ) ) ) ) ) ) ) ) ) ) ) ) ) ) ) ) ) +.B.X.$ .     ",
"    . O ( 9._ ) ) ) ) ) ) ) ) ) ) ) ) ) ) ) ) ) ) ) ) ) ) ) M b b x A ) ) ) ) ) ) ) ) ) ) ) ) ) ) ) ) ) ) ) %.3.; .     ",
"    . @ / ] ) ) ) ) ) ) ) ) ) Q Y Y ) ) ) ) ) ) ) ) ) ) ) ` B b b x G ` ) ) ) ) ) ) ) ) ) ) ) ) ) ) ) ) ) ) _ X.; .     ",
"    O + P ) ) ) ) ) ) ) ) ) ) C b M J ) ) ) ) ) ) ) ) ) ) } R b k C ` ' ) ) ) ) ) ) ) ) ) ) Z M A ) ) ) ) ) ) ) = .     ",
"    . O N ) ) ) ) ) ) ) ) ) G M b b M T ) ) ) ) ) ) ) ) ) ) 5.} `  .1._ ) ) ) ) ) ) ) ) _ T M k b T ) ) ) ) ) Y * .     ",
"    . O N _ ) ) ) ) ) ) ) _ J k b b b ) ) ) ) ) ) ) ) ) ) ) ] :.5.#._ ) ) ) ) ) ) ) ) ) ) ' F k Z ' ) ) ) ) ) Y * .     ",
"    O + N _ ) ) ) ) ) ) ) ' ` k b b G } ) ) ) ) ) ) ) ) ) ) ) ) ) ) ) ) ) ) ) ) ) ) ) ) ) ]  .` X.' ) ) ) ) ) P * .     ",
"    . O N ) ) ) ) ) ) ) ) ) *.` J R *.} ) ) ) ) ) ) ) ) ) ) ) ) ) ) ) ) ) ) ) ) ) ) ) ) ) ) _ } ] ) ) ) ) ) ) P $ .     ",
"    . . k ) ) ) ) ) ) ) ) ) ' 2.e.0.+.) ) ) ) ) ) ) ) ) ) ) ) ) ) ) ) ) ) ) ) ) ) ) ) ) ) ) ) ) ) ) ! ) ) ) ) N O .     ",
"    . . u ) ) ) ) ) ) ) ) ) ) ) ` ' ) ) ) ) ) ) ) ) ) ) ) ) ) ) ) ) ) ) ) ) ) ) ) ) ) ) ) ) ) ) ) ) ) ) ) ) _ e . .     ",
"    . . 9 ) ) ) ) ) ) ) ) ) ) ) ) ) ) ) ) ) ) ) ) ) ) ) ) ) ) ) ) ) ) ) ) ) ) ) J A L ) ) ) ) ) ) ) ) ) ) ) T > . .     ",
"    . . 5 ) ) ) ) ) ) ) ) ) ) ) ) ) ) ) ) ) ) ) ) ) ) ) ) ) ) T ) T ) ) ) ) ) T C b b T Q ) ) ) ) ) ) ) ) ) P $ . .     ",
"    . . 1 T ) ) ) ) ) ) ) ) ) ) ) ) ) ) ) ) ) ) ) ) ) ) ) ) P M M Z J ) ) ) ) ) m k B _ ) ) ) ) ) ) ) ! ) ) Y ; . .     ",
"    . . - P ) ) ) ) ) ) ) ) U ) ) ) ) ) ) ) ) ) ) ) ) ) ) ) M k b k b U ) ) ) ] ^ K ) ] ) ) ) ) ) ) ) ) ) ) ) 5 . .     ",
"    . . $ L ) ) ) ) ) ) J M M Z Y ) ) ) ) ) ) ) ) ) ) ) ) U b M b b b J _ ) ) ) +.-...) ) ) ) ) ) ) ) ) ) ) ) i . .     ",
"    . . # L ) ) ) ) ) ) Z k k M A ) ) ) ) ) ) ) ) ) ) ) _ ` k M b b x U ` ) ) ) ) ) ) ) ) ) ) ) ) ) ) ) ) ) ) d . .     ",
"    . . + N ) ) ) ) ) ) C k C k J _ ) ) ) ) ) ) ) ) ) ) _  .F k b b M { ' ) ) ) ) ) ) ) ) ) ) ) ) ) ) ) ) ) ) l X .     ",
"    . . + N _ ) ) ) ) } C k k M W ' ) ) ) ) ) ) ) ) ) ) ) #. .J M Z [ ,.) ) ) ) ) ) ) ) ) ) ) ) ) ) ) ) ) ) _ d . .     ",
"    . . O N ) ) ) ) )  . .K Z W *._ ) ) ) ) ) ) ) ) ) ) ) _ 6.h.5.t.h.] ) ) ) ) ) ) ) ) ) ) ) ) ) ) ) ) ) ) _ i . .     ",
"    O . O N _ ) ) ) ) ) %.2.9.9.] ) ) ) ) ) ) ) ) ) ) ) ) ) )  .;. .] ) ) ) ) ) ) ) ) ) ) ) ) ) ) ) ) ) ) ) ) 0 . O     ",
"    . . $ L ) ) ) ) ) ) ) ...._ ) ) ) ) ) ) ) ) ) ) ) ) ) ) ) ) ) ) ) ) ) ) ) ) ) ) ) ) ) ) ) L ) ) ) ) ) ) ) 8 . .     ",
"    . . > Q ) ) ) ) ) ) ) ) ) ) ) ) ) ) ) ) ) ) ) ) ) ) ) ) ) ) ) ) ) ) ) ) ) ) ) ) ) ) ) L k k S T ) ) ) ) ) e . .     ",
"    . . 8 ) ) ) ) ) ) ) ) ) ) ) ) ) ) ) ) L ) ) ) ) ) ) ) ) ) ) ) ) ) ) ) ) ) ) ) ) ) ) ) M k M b J ) ) ) ) ) d . .     ",
"    . . i _ ) ) Q ) ) ) ) ) ) ) ) ) ) J Z k M K T ) ) ) ) ) ) ) ) ) ) ) ) ) ) ) ) ) ) ) ) k k C b K _ ) ) ) _ N O .     ",
"    . . l _ ) ) ) ) ) ) ) ) ) ) ) ) J k k M k k J ) ) ) ) ) ) ) ) ) ) ) ) ) ) ) ) ) ) ) ` Z k k b ` _ ) ) ) ) P * .     ",
"    . O N ) ) ) ) ) ) ) ) ) ) ) ) ) G C C k k M Z ) ) ) ) ) ) ) ) ) ) ) ) ) ) ) ) ) ) )  . .W K ` ;.) ) ) ) ) P * .     ",
"    . O S _ ) ) ) ) ) ) ) ) ) ) ) ] F k k C C k F ] ) ) ) ) ) ) ) ) ) ) ) ) ) ) ) ) ) ) _ #.p.p.2._ ) ) ) ) ) T * .     ",
"    . O N ) ) ) ) ) ) ) ) Q ) ) ) } U k M k M k R } ) ) ) ) ) ) ) ) ) ) ) ) ) ) ) ) ) ) ) ) _ ' ) ) ) ) ) ) ) P * .     ",
"    . O M ) ) ) ) ) ) ) ) ) ) ) ) } *.F k M k F *.' ) ) ) ) ) ) ) ) ) ) ) ) ) ) ) ) ) ) ) ) ) ) ) ) ) ) ) ) ) D # .     ",
"    . O s T ) ) ) ) ) ) ) ) ) ) ) ) 6.<.` R ` 6.2.) ) ) ) ) ) ) ) ) ) ) ) ) ) ) ) ) ) ) ) ) ) ) ) ) ) ) ) ) T m # .     ",
"    . O s M T ) ) ) ) ) ) ) ) ) ) ) ' 2.x.x.x.6.' ) ) ) ) ) ) ) ) ) ) ) ) ) ) ) ) ) ) ) ) ) ) ) ) ) ) ) ) T D k # .     ",
"    . O s b Z ) ) ) ) ) ) ) ) ) ) ) ) ) } } ] _ ) ) ) ) ) ) ) ) ) ) ) ) ) ) ) ) ) ) ) ) ) ) ) ) ) ) ) ) ) J b k # .     ",
"    . O p b b C P ) ) ) ) ) ) ) ) ) ) ) ) ) ) ) ) ) ) ) ) ) ) ) ) ) T ) ) ) ) ) ) ) ) ) ) ) ) ) ) ) ) T A b b j # .     ",
"    . . u b b b M D T ) ) ) ) ) ) ) ) ) ) ) ) ) ) ) ) ) ) ) ) ) ) ) ) ) ) ) ) ) ) ) ) ) ) ) ) ) ) ) J M b b b j + .     ",
"    . . 8 b b b b b M S L P P P Y ) U ) Y ) Y T T T T T T T T T T T T Y T T T T T T T T Y ) Y L D M b x b b b u O .     ",
"    . . : x b b b b b b b b b M M M M M M C M M m m m m m m b M k k A k Z k A m m m m m m m m k b m b b b b b 6 . .     ",
"      . O s b b b b b b b b b b b k b b k k k k b b b b b b b b k M k C k C m k m m k m b b b m b b b b b b k % .       ",
"      . . 1 x b b b b b b b b b b b b b m k C k b b b b b b b b C k C k m m k C k m m k b b b m b b b b b b u . .       ",
"        . O w b b b b b b b b b b b b b k C k C b b b b b b b b k C k C k k C k C k m m b b b k b b b b b p O . O       ",
"        . . + u b b b b b b b b b b b m C b b b b b b b b b b b b b m k m k m m k m k m k M k M k M k M g % . .         ",
"          . . @ t b b b b b b b b b b k k C C k b b b b b m b b b b m m m m m k C k C k M k M k k k M s = . X           ",
"            . . O 2 g b b b b b b m g 9 1 3 p k b b b k s t t p j j k k m k m m k C k k k k k M C k 9 + . O             ",
"              . . . + 1 t g k k j 6 # . . . O : 1 1 : # O . O O + + % = : 1 3 3 6 4 4 1 : 1 : : , % . . .               ",
"                  . . . . O # # + . . . . . O . . . . . . . . . . . . . . . . . . . . . . . . . . . .                   ",
"                      . . . . . . . X . . O . . . . . . . . . . . . . . X O . . . X . . . O . . .                       ",
"                                                                                                                        ",
"                                                                                                                        "
};
