/* XPM */
static char *a1be142d385a4ba4b24be0d651aeb445tpHCOKtmluOpljQs[] = {
/* columns rows colors chars-per-pixel */
"60 60 137 2 ",
"   c #FFD05B",
".  c #FFCC58",
"X  c #FFB346",
"o  c #FFAE43",
"O  c #FFB748",
"+  c #FFBF4C",
"@  c #FFC04C",
"#  c #FFCB50",
"$  c #FFCC50",
"%  c #FFCC51",
"&  c #FFD05A",
"*  c #FFD660",
"=  c #FFDB64",
"-  c #FFDA63",
";  c #FFD15C",
":  c #FFCE56",
">  c #FFD15B",
",  c #FFCD59",
"<  c #FFB245",
"1  c #FFAE42",
"2  c #FFB747",
"3  c #FFCA4F",
"4  c #FFCF5A",
"5  c #FFD55F",
"6  c #FFCB55",
"7  c #FFC754",
"8  c #FFC652",
"9  c #FFB949",
"0  c #FFBE4B",
"q  c #FFC64E",
"w  c #FFC54E",
"e  c #FFC64F",
"r  c #FFCD55",
"t  c #FFCE55",
"y  c #FFD158",
"u  c #FFD45A",
"i  c #FFD45B",
"p  c #FFD862",
"a  c #FFD35A",
"s  c #FFCF56",
"d  c #FFCD53",
"f  c #FFBE4C",
"g  c #FFCD51",
"h  c #FFDC65",
"j  c #FFD05C",
"k  c #FFCD52",
"l  c #FFCE52",
"z  c #FFCE53",
"x  c #FFDA64",
"c  c #FFD962",
"v  c #FFDA62",
"b  c #FFD35D",
"n  c #FFCC57",
"m  c #FFC950",
"M  c #FFC94F",
"N  c #FFCF59",
"B  c #FFD45E",
"V  c #FFB345",
"C  c #FFB244",
"Z  c #FFB445",
"A  c #FFD560",
"S  c #FFCD50",
"D  c #FFBE49",
"F  c #FFAF43",
"G  c #FFB044",
"H  c #FFBD4B",
"J  c #FFCF57",
"K  c #FFD55E",
"L  c #FFD55D",
"P  c #FFCC54",
"I  c #FFBF4B",
"U  c #FFBD49",
"Y  c #FFBE4A",
"T  c #FFB646",
"R  c #FFB043",
"E  c #FFB647",
"W  c #FFB948",
"Q  c #FFC44D",
"!  c #FFC94E",
"~  c #FFB144",
"^  c #FFC14D",
"/  c #FFD25D",
"(  c #FFC64D",
")  c #FFC24D",
"_  c #FFBC4A",
"`  c #FFDC64",
"'  c #FFD25B",
"]  c #FFBF4A",
"[  c #FFB848",
"{  c #FFCA52",
"}  c #FFC854",
"|  c #FFCC52",
" . c #FFC552",
".. c #FFB648",
"X. c #FFCC4F",
"o. c #FFB246",
"O. c #FFC752",
"+. c #FFBF4F",
"@. c #FFBE4E",
"#. c #FFCA50",
"$. c #FFC14E",
"%. c #FFC24E",
"&. c #FFCB51",
"*. c #FFCB4F",
"=. c #FFBF4E",
"-. c #FFC04D",
";. c #FFB546",
":. c #FFCE59",
">. c #FFC853",
",. c #FFB446",
"<. c #FFCE58",
"1. c #FFC650",
"2. c #FFBC49",
"3. c #FFBB4A",
"4. c #FFC34F",
"5. c #FFC753",
"6. c #FFC350",
"7. c #FFC24F",
"8. c #FFC850",
"9. c #FFCE5A",
"0. c #FFD761",
"q. c #FFD861",
"w. c #FFCE57",
"e. c #FFC855",
"r. c #FFC04F",
"t. c #FFDB65",
"y. c #FFC956",
"u. c #FFC751",
"i. c #FFAD42",
"p. c #FFC84E",
"a. c #FFC54D",
"s. c #FFC955",
"d. c #FFC450",
"f. c #FFD860",
"g. c #FFD055",
"h. c #FFCB57",
"j. c white",
/* pixels */
"        . X o O + + + + + + @ # $ $ $ % &                       * = = = = = = = = = = = - ;   : $ $ $ $ $ $ $ $ $ $ $ $ ",
"      > , < 1 2 + + + + + + @ 3 $ $ $ % 4                       5 = = = = = = = = = = = - ;   : $ $ $ $ $ $ $ $ $ $ $ $ ",
": : 6 7 8 9 2 0 q q q q q w e r t y u i 5 * * * * * * * * * * 5 p = = = = p 5 5 i a u u a s : d $ $ $ $ $ $ $ $ $ d : : ",
"$ $ w f + + + q $ $ $ $ $ $ g &   * h = = = = = = = = = = = = = = = = = = *   & % $ $ $ $ $ $ $ $ $ $ $ $ $ $ $ $ : j   ",
"# # w + + @ @ q $ $ % % k l z > ; * = = = = = = = = = x - - c c c c c c v b . n m M M M M M M M M M 3 # # $ $ $ $ t & & ",
"@ @ @ + @ M # # $ % N 4 B v c - - x = = = = = = = = = * ; > z l l l l l l @ < V < C C C C C C C C Z + @ q $ $ $ $ % % % ",
"+ + + + @ # $ $ $ % 4   A = = = = = = = = = = = = = h *   & g $ $ $ $ $ S D o F F F F F F F o o o G H + w $ $ $ $ $ $ $ ",
"q q q w q # $ d : J K 5 p = = = = p 5 * * * L a u u u y : P I U Y Y Y Y Y T F F F F F F R E O O 2 W Q w M $ $ $ $ $ $ $ ",
"$ $ $ $ $ $ $ :   ; - = = = = = = 5         t $ $ $ $ $ $ ! C o o o o o o F F F F F F F ~ 0 + + + ^ # $ $ $ $ $ $ $ $ $ ",
"$ $ $ $ $ % % J ; / - = x - - - - K 4 & & & P ! M M M M M ( C F F F F F F F F F ~ ~ ~ ~ < H + @ @ ) # $ $ $ $ # # # # # ",
"$ $ $ $ % N 4 K - - = = * ; ; ; ; J % % % g I C C C C C C C F F F F F F F F F ~ _ H H H H + + w # # $ $ $ $ # ) @ @ @ @ ",
"$ $ $ $ % 4   * ` = = = *         : $ $ $ S Y o F F F F F F F F F F F F F F F G H + + + + + f w $ $ $ $ $ $ # @ + + + + ",
"$ $ d : J K * * * * * * ' t : : : d $ 3 ] Y T F F F F F F F F F F F F F F V O [ f + + + @ w w M $ % t : { w w @ + ) q q ",
"$ $ :   ; - ` *         t $ $ $ $ $ $ M C o F F F F F F F F F F F F F F F O @ + + + + + @ # $ $ $ % & ; } + + + + q $ $ ",
"$ $ s ; / c - K 4 & & & P ! M M M M M ( C F F F F F F F F F ~ ~ ~ ~ ~ ~ G [ + + + + @ @ ) # $ % % | . ,  .H H + + q $ $ ",
"$ $ a - c / ; J % % % g I C C C C C C C F F F F F F F F F ~ _ H H H H H H f + + + + w # # $ $ t & . ..< < ~ < H + q $ $ ",
"$ X.u h - ;   : $ $ $ S Y o F F F F F F F F F F F F F F F G H + + + + + + + + + + f w $ $ $ $ : ; , o.F F o G H + w $ $ ",
": t ' * K J : d $ 3 ] Y T F F F F F F F F F F F R E O O 2 [ f + + + + + + + + @ w w M $ % t : O.+.@.~ F V O W Q w M $ $ ",
"        4 g $ $ $ M C o F F F F F F F F F F F F ~ 0 + + + + + + + + + + + + + @ # $ $ $ g & ; +.1 o F F O @ ^ # $ $ $ $ ",
"    & & N #.M M M ( C F F F F F F R ~ ~ ~ ~ ~ ~ < H + + + + H H f + + ^ $.$.$.%.&.g $ *.&.n , =.G ~ ~ G [ + -.&.g k l l ",
"    : g #.;.C C C C F F F F F F F E 0 H H H H H H + + + + H < G [ + ^ . :.:.:.:.4 & >.@ + ,.< [ H H H H f + $.<.4 B v c ",
"    : S M C F F F F F F F F F F o 2 + + + + + + + + + + + H G 1 2 + ^ :.          ; } + H G 1 2 + + + + + + ^ :.  * ` = ",
": : 1.U 2.~ F F F F F F V O O O 2 3.+ + + + + + + + + 3.2 [ U U 4.} } 4   n 5.} } } 6.+ f [ 2 0 q e 5.} } 5.} 4   b * * ",
"$ S U 1 F F F F F F F F O @ + + + + + + + + + + + + + 2 1 C M S : j       5.0 + f f + + + + + q $ g &                   ",
"M M 2.F F F F R ~ ~ ~ G [ + + + + @ @ -.$.$.-.+ + + + W C ;.#.g :         } ^ $.7.7.7.7.7.7.7.8.l z > ; ; ; ;           ",
"C C ~ F F F F E 0 H H H f + + + + w # &.<.9.5.+ + + + Q M #.N & &         4 :.4 0.q.q.q.q.q.q.c c c - - - - c ;         ",
"o o F F F F o 2 + + + + + + + + f q S g & ; } + + + f w $ % 4                 ; - = = = = = = = = = = = = = - ;     > > ",
"O O O O O O 2 =.} 8 9 2 O 2 W Q q q w e 5.} 6.+ -.5.5.w.u i 5 * * * * * * * 5 * x = p 5 * * 5 p = = = = p 5 5 >   e.+.r.",
"+ + + + + + + } ; , o.o F o C M S w f + + + + + $.9.  * t.= = = = = = = = = = = = = 5         5 = = = = A       ; +.1 1 ",
"+ + @ @ -.$.^ 5., y.< F ~ C ;.#.g e + + @ @ ^ $.4.4 ; * = = = = = = = = = = = = = = *         5 - - c v B 4 4 :.4 +.G ~ ",
"+ + w # &.<.4 r.< < F o 2.M #.N & 5.+ @ M *.P :.4 c - x = = = = = = = = = = = = = = *         > ; > z l k % &.%.$.+ H H ",
"+ + q S g & ; +.1 o o o U S g & ; } f @ *.$ t   ; - = = = = = = = = = = = = = = = h *             & g $ $ S # ^ + + + + ",
"+ + ) q w r.+.+ U Y Y U 1.: r } 7 u.w e r t ' * * x = = = = = = = = x * A L a u u u y t : : : : : P I U Y Y U [ 2 O O O ",
"+ + + + H R i.U g S S $ : j 9.-.0 w $ g &   * = = = = = = = = = = = - ;   t X.$ $ $ $ $ $ $ $ $ $ ! C o o o o F F F F F ",
"+ + + + 0 Z C ] $ $ $ $ t & <.%.@ e g k > ; * = = = = x - - c c c c q.> & t $ $ $ $ 3 M M M M M M ( C F F F F F F R ~ ~ ",
"+ + + + @ p.M 3 $ $ $ $ % % % # 3 r & > c - x = = = = * ; > z l l l l g % % $ $ $ $ ] C C C C C C C F F F F F F F E 0 H ",
"+ + + + @ # $ $ $ $ $ $ $ $ $ $ $ t   ; - = = = = = h *   & % $ $ $ $ $ S S S S S g Y o F F F F F F F F F F F F F O + + ",
"+ + ) q q # $ $ $ $ $ $ $ $ % t t ' * * x = p 5 5 i u y t t % $ $ $ 3 ] U Y Y Y Y Y T F F F F F F F F F F F F F F O + + ",
"+ + q S $ $ $ $ $ $ $ $ $ $ % &   * = = = = 5   4 % $ $ $ $ $ $ $ $ M C o o o o o o F F F F F F F F F F F F F F F 2 + + ",
"+ + q $ $ $ $ # # # # # $ % k > ; * = = - - K 4 N % $ $ $ $ M M M M ( C F F F F F F F F F F F F F F F F R ~ ~ ~ G [ + + ",
"+ + q $ $ $ $ q @ @ @ @ >.& > c - x = - / ; J % % $ $ $ $ M ;.C C C C F F F F F F F F F F F F F F F F F E 0 H H H f + + ",
"+ + w $ $ $ S q + + + + 7   ; - = = = - ;   : $ $ $ $ $ S M C F F F F F F F F F F F F F F F F F F F F o 2 + + + + + + + ",
"q w { : r e q ) + + + + }   ; - = p 5 K J : d $ $ $ $ a.U 2.~ F F F F F F F F F F F F F F F F V O O O 2 3.+ + + + + + + ",
"$ $ : j 9.$.+ + + + + + 5.  ; - = 5   4 % $ $ $ $ $ S U 1 F F F F F F F F F F F F F F F F F F O @ + + + + + + + + + + + ",
"% % r 9.. ^ + + + + ^ ^ s.; / c - K 4 N % $ 3 M M M M 2.F F F F F F F F F F F F ~ ~ ~ ~ ~ ~ G [ + + + + + + + + + @ @ @ ",
"& & } ^ ^ + + + + ^ . :.B - c / ; J % % $ $ ] C C C C ~ F F F F F F F F F F F ~ _ H H H H H H f + + + + + + + + + w # # ",
"  ; } + + + + + + $.:.  A = - ;   : $ $ $ g Y o F F F F F F F F F F F F F F F G H + + + + + + + + + + + + + + + f w $ $ ",
"} } 6.+ + + + + + $.b * p = v J t d $ 3 ] Y T F F F F F F F F F F F R E O O 2 [ f + + + + + + + + + + + ) q q q w { : : ",
"+ + + + + + + + + 7.p = = = c l $ $ $ M C o F F F F F F F F F F F F ~ 0 + + + + + + + + + + + + + + + + q S $ $ $ : j   ",
"+ + + + + + + -.$.d.p = - c f.k $ 3 M ( C F F F F F F R ~ ~ ~ ~ ~ ~ < H + + + + + + + + + H H f + + @ @ q $ $ % % r 9.:.",
"+ + + + + + + 5.9.  - = i k k $ $ ] C C F F F F F F F E 0 H H H H H H + + + + + + + + + H < G [ + @ M # # $ % N & } ^ $.",
"+ + + + + + 0 5.  ; - h u X.$ $ g Y o F F F F F F F o 2 + + + + + + + + + + + + + + + + H G o 2 + @ # $ $ $ g & ; } + + ",
"+ + + + -.5.5.4 * 5 i u g.$ 3 ] Y T F F F F V O O O 2 3.+ + + + + + f [ 2 O O O O O O O O O 2 3.+ @ # $ M w e 5.} 6.+ + ",
"+ + + + $.9.  * h v l $ $ $ M C o F F F F F O @ + + + + + + + + + + H G F F F F F F F o G H + + + @ # $ w f + + + + + + ",
"@ @ @ @ %.4 ; * - q.&.! M M ( V ~ ~ ~ ~ ~ G [ + + + + + + + H H H H _ ~ F F F F ~ ~ ~ ~ < H + @ @ ) M # q @ @ + + + + + ",
"# # # 3 | q.- * ; :.E C C C V _ H H H H H H f + + + + + + H < ~ ~ ~ ~ F F F F ~ _ H H H H + + w # M ) @ q # M @ + + + + ",
"$ $ $ X.k v h * > , o.F F o G H + + + + + + + + + + + + + H G o F F F F F F F G H + + + + + f w $ *.@ f w $ # @ + + + + ",
"$ $ g.u i 5 * h.+.@.~ F V O [ f + + + @ w q q q Q W 2 O O O O O O O O O O O 2 [ f + + + -.5.7 6 : r } 7 { $ # q w q q q ",
"$ $ u h - ;   +.1 o F F O @ + + + + + @ # $ $ $ M C o F F ~ H + + + + + + + + + + + + + $.9.          j : $ $ $ $ $ $ $ ",
"$ $ u = - ; > r.o F F F O + + + + + + @ # $ $ $ M C F F F ~ H + + + + + + + + + + + + + $.:.            : $ $ $ $ $ $ $ "
};
