/* XPM */
static char *_622aedaaadd4624d395b2251b8d9426y9Iu8uqLH90pDqt4[] = {
/* columns rows colors chars-per-pixel */
"32 32 8 1 ",
"  c #3E3F3E",
". c #423830",
"X c #524539",
"o c #615545",
"O c #645746",
"+ c #566556",
"@ c #6F6455",
"# c #646464",
/* pixels */
" ##O+oOOOXXXXXOOo@XXX@OOOOO...OO",
" # o+o+XX.....OOoXX.@@OOOO..XOOO",
"O oXoooX..oooo.OO..oooOOOO.XXOOO",
"OooXOOO..ooooooOO..o # OOO.XooOO",
"O@@.XXO..ooooooOO...####@O.XXoOO",
"O@@@......Ooo@@OO  ####   .X.XXO",
"Ooooooooo..OOOO  #######  O...XX",
"OOOOOOoOoo..OO  ######   ##@@X..",
"OO...+.Ooo..OO          ####XX..",
"O....+.Ooo..oo       .XXX# XX..o",
"O..Oo+.XXX..oO...     ...XOX..oo",
"O.O+o+.+... o..      ..ooXXX.ooO",
"OOO+o+o+    .Xooooooo..oo.X..ooO",
"OOO+oo  ##  ..XOoooooo.oo...oooO",
"OOOoo#######...XOXX.OO@oo...oo@@",
"OOO######XXXXX....+.XOooX...Oo@@",
"OXXXXXXXXX...XX...+.XXXXX...OoXX",
"oXX.......    XX+o+O.....o..XXX.",
"XX......    ##.X+o+++++..o.....O",
"X..     #######.++++++O+.oo..ooO",
"X..   #########.ooooooooXOo...O+",
"..o    ## ## ###ooooOXXXXXoo..Oo",
"..oo   ##########OoOXX...XXoo...",
"O.ooo   #######  OoXX....XXooooO",
"O..oo    ###      o....oo.XXOooO",
"OO..o+          X o....Oo..XXOO.",
"OOoOo+o        .X o....XoO..XXX.",
"OOooo+o+       .X oo...Xooo.....",
"Ooo+o+o+        .XXo...XO@oo..oo",
"Ooo+++++o    ooo.......ooo@ooooO",
"OOOOOOOoooooooooO.....ooOoo ##OO",
"OOOOOOOOoooooOOOOOOooo@OOOOO  OO"
};
