/* XPM */
static char *_25d059fe9624aaadc9a8cee921bbd6am9J33WrRTu9VvsIv[] = {
/* columns rows colors chars-per-pixel */
"60 60 91 1 ",
"  c #538FF8",
". c #4F9EFF",
"X c #5497F6",
"o c #5292F9",
"O c #519AFC",
"+ c #4FB0EE",
"@ c #4EB9EF",
"# c #50B2EB",
"$ c #4EA2FE",
"% c #46AEFF",
"& c #4CACFF",
"* c #55ADF6",
"= c #50A6FC",
"- c #50A8FC",
"; c #4DB4F5",
": c #4CBAF3",
"> c #45B2FF",
", c #4BB4FE",
"< c #47B8F8",
"1 c #4CBDFF",
"2 c #56B7F5",
"3 c #59B2F1",
"4 c #56BAF4",
"5 c #52BCFA",
"6 c #4DD3DD",
"7 c #4DD3DE",
"8 c #4DD2DF",
"9 c #4DD4DD",
"0 c #4DCCE2",
"q c #4DCDE2",
"w c #4CCEE2",
"e c #4CCFE2",
"r c #4CC9E6",
"t c #4DCAE6",
"y c #4CCDE6",
"u c #4DCDE7",
"i c #4DCEE6",
"p c #49C1EF",
"a c #49C2EF",
"s c #4EC1EF",
"d c #4BC5EF",
"f c #4DC6EF",
"g c #4DCAED",
"h c #4DC9EF",
"j c #55CDE7",
"k c #54CFE7",
"l c #55CFE7",
"z c #52CEEA",
"x c #56CEED",
"c c #5DCDEC",
"v c #5ECDEC",
"b c #5CCFED",
"n c #4DD1E1",
"m c #4FD2E0",
"M c #4FD3E0",
"N c #4DD1E2",
"B c #4DD0E3",
"V c #4FD0E4",
"C c #50D2E1",
"Z c #55D2E4",
"A c #56D3E4",
"S c #56D3E5",
"D c #57D3E5",
"F c #56D1E6",
"G c #5BD3E7",
"H c #5BD3E8",
"J c #5BD1EB",
"K c #5DD3E8",
"L c #5ED3E9",
"P c #5FD3EA",
"I c #5DD4E8",
"U c #5DD1ED",
"Y c #4DC6F1",
"T c #4DC7F1",
"R c #4BC0F7",
"E c #4EC9F0",
"W c #4DC3F8",
"Q c #4DC3F9",
"! c #4DC2FB",
"~ c #4DC1FC",
"^ c #4DC2FC",
"/ c #4DC0FF",
"( c #50C5F2",
") c #53C4F5",
"_ c #52C9F2",
"` c #55CAF2",
"' c #55C9F5",
"] c #56C9F5",
"[ c #50C3FB",
"{ c #60D3EA",
"} c #60D4EA",
/* pixels */
"1/!11>>>>>>>>>>>>>>>>>,!!//h7B77B777Bh/1[/1//1!1!1,>>>>>%>>%",
"1//!1,>>%>>%>>>>>>%>>>>/!!1h977779979h111/1/!!1!11>>>>>>>>>>",
"1,,$&$%%>>>>%$>$$%%$%$&%&,&;::@@@@@@@;&,&&,1,>,1>>>>>>>%$%%$",
"%>. o..$>%>>%O............O$OO$O......=OO.&%>>>>,>>>>%>O....",
">>$oo$$$>>%%$OOO.........O.O$...OO$....O$O$>%%%%%%%%>>>$$$$$",
"1/,>%11,O$$$$oooo ooo oooooO==ooooo..Ooooooooooooo$.%1<ueE11",
"!/>>>11&O$OOO         o o  O$.o  ooO.O oo o  o  ooO--/QB9h1/",
"!11,1hhs@4,,&$=OOOOoo   o ooOoo  ooOOo ooooOO$---=,-[]`BBugg",
"1!1!!e777B!!//1=$O=Ooo o   o   ooooo    ooOO=1//1/1/]}IC7777",
"1111RyBB7B!![11-=.==oooooo o oooooooooOoooO==//1Q/[/`IIBBe0e",
">>>>,/!g77BBBeBee0et1115,oo  oOOOOO$O-1511feucPzBuI{CBC!:1,<",
">>>>>1!h7777777B7e9e!/115o o o..$O$O=&/151E77I{A9BLLA9B!1,>>",
">>%>>>>!hhhhuAAAAAAA]]_hh#####@@@@@@@shh]]xAAPPF7B_``Eh>>>>>",
">>>>>>>1/111]{L{LLL{L{A777777e777977777C{L{LLLPA7e/!1/1>>>>>",
"%%%%>>>>!/!!`IILLL{LLLG7CCeC77CB7BC7CB7CIILLLHLeBu<1111>>>>>",
"ooO.$11EeeBBBBC7BA{{LLLLLLLLLLLLLLLLLIIICCBBu<,><>,,,>>>>1/1",
"  OO$11h79777777BA}{I{L{L{LL{L{LLLLI}{}L77B7e<%>>>>>%>>>%1/1",
"OO=,,fhhhhp@ppphh_]]]]]]]AAHL{P{AAF]]]]]EEhhY1,,>>%>%%$&$,-,",
"OO-/179h!1>>>>>11/1/////1B9APPPPA7e!/1//1/1/1//,>>%>$$$.$.OO",
"-=;/!eBd11%%>>,1/111111/QuBAbPbPlBB!1111//1///11>>>>&$$$$$--",
"cPjww!!&oooo-1///1>>>>>/1Q/[1[/[!/!>>>>>1//1///111>>>//uBlcc",
"}}GBn//&    &//1/,>>>>,1[/111/11!/1>>>>>1/1[////11>>>/WB9A{L",
"]]Yp:<<%.$$$&>1>1,>>>>%&&,,&,&1,,>,>>>O$&&,,-&,,&%>>,,1EfzAA",
"1!,>>>>>>>>>>>>>%>>>>>%.OO$OO$%>>>>>>. oO=OO=.OOO$%>>>>11h77",
"11,%%%%%%%>%%%%%%%%%%>$O=OOO$$,<>>>%>$ooO..O.O.O$$%%%%%11deB",
"$$$$$$$$.$$$$$....oooooooo OO$rBp>>>%%OOooooooooooooooooo.$$",
"O$O$..O$...$.....o oooo o  O.$e7p>>>%%O$o   o oo oo  oo oo..",
"OOOOOOOO...oOOOO.o ooO=---=&&&YEfpppp@@@33*==OOOOoo o  oooo.",
"  o    o..oo o   ooo..&/!//>%>11h99B99BBI{]11=OOOO o ooooo o",
"ooo oooO..oooooooooX$$;1!!!,>>11gBB7BBMCHL]/1==$$=Xooooooooo",
"O.....O$..%%,1115)ccwwBBy,>>>%oo-WWB9AIL)///111heu1151;$.$%%",
"O$....$O..%%11/11`IL7777w>>>>%oo$1QB7A}}/1///11h9B/1111$.$>>",
",,;2444424)))]]]]xAA97tp:>>%&$.o&,>YhYQ5,&&&,51QhEhhE]]424Y:",
"11E7BLII}}P}PPPP}ABBB7p%>>%%O$..&>>/!1>%$...=1/11!e7ALLL{A69",
"[1hBCLLLL{L{PPPPHC9B79p<>><$O...$>>1/>>>$=$$$111!!yulAbLIA6n",
"{LLILL{L{L{LPPIC7B7777BeBee+oo..$$$>,>1111,%%>>11!><,,1bPIHH",
"L{L{{LLL{LLLPIIC77777977777# o..O$.%%,/1/11>%>>,/!>>>>,L}L{L",
"AAAAAAAGAAAA]]]EhhppdpdEghYY3322:@:1,1//Yhppppd<>>>>>>,W]]]]",
"B777BB97BB77h1//1>>>>>1!!11]LLLPA7B!//1RB797999p>>>>>>>!1///",
"eBBeBeeeeeeeY1111>>>>>>1/!!){bLPAeu1111/ueB9BBMd><><>>>11111",
"!!!!1<><,<><>>>>>>>>>>>>,!!//W/1<>>>>>>><>)IILLlee0Bf11>>>>>",
"/11!1>>%>>>>>>>>>>>>>>>,>111///1>>>>>>>>>>)ILL{A9777h11,>>>>",
">1>1>,>>>%$O>>>>>>,1>>1>>1>11,1,>>>>>>>>%><]]]]_hhhfW11>>>>>",
">>>>>>>>>%o .>>>,>!1!/!!1>%>>>>>>>>>>>>>>>11//11/111//1,>>>>",
"%%%%>%%%%%oo$>>>,11111111>%%%%%%>%%>%%%>>>><11111111111>%%%%",
"$$$$$oooo.,1<11/1111==O$$$$$$$oo..$$.%>>>>>>>,>&$$.$&>%$$$$$",
".$O$Oo o o11!!////11$OO=..O$OOo O$...%>>>>>>>>>%....%%%$....",
".o$O$OoO--1!!dhhhhh),&&,&...OO  oo.oO.$$$$$$$.$....o.$.OOOo.",
"  o$O$O,!!11zu77777B!1!!1$OOooooo             oo$Oo     o  o",
"ooO=$==,!!!1hee777Bu!!1!W$$Oooooooo o  o  o  ooo$Oo oooooooo",
"11111teeBu!1><<BBp<>1!fuekef1,=O... o  o o     ooo oO.=,1551",
"1111WBB77e/!1>>B7p%>11h9777f11=O...         o   o   OO$51111",
"]]_Ehfhhhh/1,$&+++>>YhuB77Bz]]42222-$---OOOOO==---=--,,)`]]]",
"L{A7BW511!1!&..o .>>e777777A{}}I}}L///11=OO.=1/1////11[b}{{{",
"L{Aeu//1111/,$.oo$%<t7wee77ALLILIILW/[[1=====5/[[[[1/1[{LLII",
"/1/QW/11,,111111<-oo$$,/!B7C7BB7CCCBelbLbvbbbPbLLbbIGeeCCC7C",
"11///1/,>>11!1/1/$oo..%1!B997777777B7A{{{L{L{LLL{L{{A7B77777",
"//[1/1/1>>,1!!111&.$$%%,>hhhhhhhu7777CAAAAL{L{{HAAAAzhhhhhhh",
"//11//1,>>>%>/1>>>>>>>>>>1/////1f777B77BB7AL{LLA77u7h1/1//11",
"11//1//1>>>>>11>>>>>>>>%,1/11//1h77B77777BAPL{LA77B7h/1111//"
};
